<?xml version="1.0" encoding="UTF-8" standalone="no"?>
<svg
   xmlns:dc="http://purl.org/dc/elements/1.1/"
   xmlns:cc="http://creativecommons.org/ns#"
   xmlns:rdf="http://www.w3.org/1999/02/22-rdf-syntax-ns#"
   xmlns:svg="http://www.w3.org/2000/svg"
   xmlns="http://www.w3.org/2000/svg"
   id="svg8"
   version="1.1"
   viewBox="0 0 60.000004 60.000038"
   height="60.000038mm"
   width="60.000004mm">
  <defs
     id="defs2">
    <clipPath
       id="clipPath828"
       clipPathUnits="userSpaceOnUse">
      <path
         id="path830"
         d="m 91.579729,139.51819 h 14.500001 c 0.1385,0 0.25,0.1115 0.25,0.25001 v 14.5 c 0,0.1385 -0.1115,0.25 -0.25,0.25 H 91.579729 c -0.1385,0 -0.25,-0.1115 -0.25,-0.25 v -14.5 c 0,-0.13851 0.1115,-0.25001 0.25,-0.25001 z"
         style="fill:#83b48f;fill-opacity:0.55;stroke:none;stroke-width:0;stroke-miterlimit:4;stroke-dasharray:none;stroke-opacity:1" />
    </clipPath>
  </defs>
  <metadata
     id="metadata5">
    <rdf:RDF>
      <cc:Work
         rdf:about="">
        <dc:format>image/svg+xml</dc:format>
        <dc:type
           rdf:resource="http://purl.org/dc/dcmitype/StillImage" />
        <dc:title></dc:title>
      </cc:Work>
    </rdf:RDF>
  </metadata>
  <g
     transform="translate(-74.999996,-118.49998)"
     id="layer1">
    <g
       clip-path="url(#clipPath828)"
       transform="matrix(4,0,0,4,-290.31892,-439.57278)"
       id="g4530">
      <path
         id="rect4586"
         d="m 84,125 h 42 c 1.385,0 2.5,1.115 2.5,2.5 v 42 c 0,1.385 -1.115,2.5 -2.5,2.5 H 84 c -1.385,0 -2.5,-1.115 -2.5,-2.5 v -42 c 0,-1.385 1.115,-2.5 2.5,-2.5 z"
         style="fill:#83b48f;fill-opacity:1;stroke:none;stroke-width:0;stroke-miterlimit:4;stroke-dasharray:none;stroke-opacity:1" />
      <path
         style="fill:#000000;stroke-width:0.08466666"
         d="m 83.332263,167.5931 c 9.9e-4,-2.6035 9.9e-4,-2.6035 7.44791,-10.0965 4.09581,-4.12115 7.44816,-7.5508 7.44967,-7.62144 10e-4,-0.0707 -0.41634,-0.54625 -0.92857,-1.05689 -0.51224,-0.51065 -0.93134,-0.98696 -0.93134,-1.05848 0,-0.0715 0.381,-0.5096 0.84667,-0.97352 0.46567,-0.46392 0.84667,-0.89603 0.84667,-0.96025 0,-0.0642 -0.40005,-0.52745 -0.889001,-1.02942 -0.488949,-0.50196 -0.889,-0.94608 -0.889,-0.98694 0,-0.0409 0.4191,-0.49208 0.93133,-1.00272 0.51223,-0.51065 0.93133,-0.98183 0.93133,-1.04707 0,-0.0652 -3.343269,-3.44535 -7.429499,-7.51137 -7.4295,-7.39275 -7.4295,-7.39275 10.857277,-7.39699 20.52916,-0.005 19.91,-1.53582 5.28827,13.07676 -2.79575,2.794 -5.08143,5.13481 -5.07928,5.2018 0.002,0.067 0.6897,0.81125 1.5279,1.6539 0.8382,0.84266 1.524,1.56769 1.524,1.61117 0,0.0435 -0.74295,0.82539 -1.651,1.73758 -0.90805,0.91219 -1.651,1.7106 -1.651,1.77425 0,0.0636 0.78105,0.90258 1.73566,1.8643 0.95462,0.96172 1.73567,1.80134 1.73567,1.86582 0,0.0645 -0.67628,0.79385 -1.50283,1.62083 -0.82656,0.82698 -1.51411,1.57404 -1.52788,1.66014 -0.0176,0.10997 1.59421,1.78725 5.41866,5.63875 2.99404,3.01522 5.45641,5.51767 5.47194,5.561 0.0173,0.0484 -5.67028,0.0788 -14.753168,0.0788 -14.78138,0 -14.78138,0 -14.78039,-2.6035 z m 25.356667,-2.957 c -3.02683,-3.0514 -5.5143,-5.61109 -5.5277,-5.6882 -0.0329,-0.18917 2.35075,-2.55196 2.57447,-2.55196 0.10626,0 1.24927,1.0928 3.16589,3.02683 1.64977,1.66476 4.73295,4.76991 6.85151,6.90033 3.85194,3.8735 3.85194,3.8735 1.14555,3.86725 -2.70639,-0.006 -2.70639,-0.006 -8.20972,-5.55425 z m 8.14289,1.54497 c -2.18044,-2.19201 -5.40942,-5.43818 -7.1755,-7.21371 -1.76608,-1.77554 -3.21106,-3.2778 -3.21106,-3.33836 0,-0.1452 2.6274,-2.78906 2.77169,-2.78906 0.0614,0 4.00627,3.90664 8.76645,8.68143 8.65486,8.68144 8.65486,8.68144 5.73386,8.66331 -2.921,-0.0181 -2.921,-0.0181 -6.88544,-4.00361 z m 1.50911,-5.5438 c -6.03542,-6.03078 -8.30455,-8.34968 -8.32379,-8.50635 -0.0228,-0.1855 1.12822,-1.36981 8.29733,-8.53735 8.32379,-8.32197 8.32379,-8.32197 8.34537,0.13028 0.0119,4.64873 0.0119,12.22147 0,16.82831 -0.0216,8.37607 -0.0216,8.37607 -8.31891,0.0851 z m -35.009107,1.88337 c -5.5e-4,-1.79164 -5.5e-4,-1.79164 6.19445,-8.02217 3.40725,-3.42679 6.25597,-6.23053 6.3305,-6.23053 0.17123,0 1.69904,1.52599 1.69694,1.69492 -8.6e-4,0.069 -3.20101,3.32581 -7.11145,7.23741 -7.10989,7.112 -7.10989,7.112 -7.11044,5.32037 z m -5.5e-4,-4.17991 c 0,-1.64278 0,-1.64278 5.1435,-6.79478 2.82892,-2.8336 5.21497,-5.19146 5.30233,-5.23969 0.17668,-0.0976 1.57723,1.19227 1.57644,1.45181 -2.5e-4,0.0709 -2.70532,2.8506 -6.01133,6.17716 -6.01094,6.04829 -6.01094,6.04829 -6.01094,4.4055 z m 0,-12.51501 c 0,-5.54865 0.0219,-10.08845 0.0486,-10.08845 0.0267,0 0.51742,0.46672 1.09037,1.03717 0.57296,0.57044 1.5512,1.53843 2.17386,2.15109 4.28658,4.21767 6.778,6.78967 6.70439,6.9212 -0.0629,0.11245 -9.38439,9.49459 -9.8691,9.93333 -0.14103,0.12766 -0.14816,-0.35163 -0.14816,-9.95434 z m 20.881787,7.63414 c -0.77465,-0.77664 -1.40846,-1.47241 -1.40846,-1.54616 0,-0.14524 2.61279,-2.7991 2.75579,-2.7991 0.0971,0 3.00154,2.8967 3.00154,2.99354 0,0.11875 -2.69692,2.7638 -2.818,2.7638 -0.0673,0 -0.75621,-0.63544 -1.53087,-1.41208 z m 3.501,-3.5047 c -0.80152,-0.79999 -1.4365,-1.5005 -1.422,-1.56876 0.0347,-0.16337 4.27363,-4.45998 13.1072,-13.2856 7.239,-7.23247 7.239,-7.23247 7.26124,-4.16934 0.0222,3.06314 0.0222,3.06314 -7.19666,10.27069 -3.9704,3.96416 -7.87765,7.88051 -8.68277,8.703 -0.80512,0.8225 -1.49872,1.49545 -1.54134,1.49545 -0.0426,0 -0.72917,-0.65045 -1.52567,-1.44544 z m -3.53466,-3.57205 c -0.70957,-0.71069 -1.29038,-1.34886 -1.29068,-1.41817 -2.9e-4,-0.0693 2.05683,-2.1834 4.57139,-4.698 2.51455,-2.5146 6.56024,-6.56273 8.99041,-8.99584 4.41849,-4.42383 4.41849,-4.42383 7.16202,-4.42383 2.74352,0 2.74352,0 -7.61404,10.41319 -5.69667,5.72726 -10.39613,10.41356 -10.44326,10.414 -0.0471,4.3e-4 -0.66626,-0.58066 -1.37584,-1.29135 z m -9.149117,0.1595 c -0.38079,-0.39012 -0.69235,-0.73768 -0.69235,-0.77234 0,-0.10186 1.37582,-1.48167 1.47739,-1.48167 0.1412,0 1.48595,1.38258 1.48595,1.52776 0,0.16774 -1.27824,1.43558 -1.44736,1.43558 -0.0722,0 -0.44283,-0.3192 -0.82363,-0.70933 z m -4.88105,-4.85648 c -2.00363,-1.99016 -4.35688,-4.32379 -5.22945,-5.18584 -1.58648,-1.56735 -1.58648,-1.56735 -1.5875,-3.11252 -5.6e-4,-0.84984 0.0208,-1.54517 0.0475,-1.54517 0.0267,0 1.40978,1.36208 3.07355,3.02684 1.66378,1.66475 4.34705,4.34051 5.96283,5.94612 1.61578,1.6056 2.93778,2.95899 2.93778,3.00753 0,0.11019 -1.37098,1.48151 -1.48114,1.48151 -0.0443,0 -1.71994,-1.62831 -3.72356,-3.61847 z m 3.12626,-0.77331 c -1.34817,-1.34445 -4.13715,-4.12376 -6.19772,-6.17625 -3.7465,-3.73179 -3.7465,-3.73179 -3.7465,-5.39526 0,-1.66347 0,-1.66347 7.00616,5.29429 3.85339,3.82676 7.01945,7.01673 7.03568,7.08882 0.0309,0.13732 -1.39408,1.63285 -1.55585,1.63285 -0.0498,0 -1.19359,-1.1 -2.54177,-2.44445 z"
         id="path4584" />
    </g>
  </g>
</svg>
